<svg width="18" height="18" viewBox="0 0 18 18" fill="none" xmlns="http://www.w3.org/2000/svg">
<path d="M14.7524 3.76337C14.7478 3.75447 14.7402 3.74749 14.731 3.74369C13.6587 3.25174 12.5272 2.90095 11.3648 2.70008C11.3542 2.69812 11.3433 2.69953 11.3336 2.70413C11.3239 2.70872 11.3159 2.71626 11.3107 2.72567C11.1566 3.00532 11.0168 3.29256 10.8916 3.5863C9.63857 3.39608 8.36397 3.39608 7.11091 3.5863C6.98496 3.29181 6.84285 3.0045 6.68524 2.72567C6.67983 2.71647 6.67178 2.7091 6.66213 2.70454C6.65247 2.69997 6.64167 2.69842 6.63112 2.70008C5.46854 2.90052 4.33697 3.25135 3.2649 3.74371C3.25572 3.7476 3.24798 3.75425 3.24274 3.76273C1.0988 6.96442 0.51149 10.0874 0.799602 13.1717C0.800413 13.1793 0.802735 13.1866 0.806431 13.1932C0.810127 13.1999 0.815122 13.2057 0.821118 13.2104C2.06951 14.1347 3.46586 14.8403 4.95057 15.2969C4.96103 15.3001 4.97219 15.2999 4.98256 15.2965C4.99294 15.2931 5.00202 15.2866 5.00859 15.2779C5.32748 14.844 5.61003 14.3846 5.85338 13.9042C5.85673 13.8976 5.85864 13.8904 5.85898 13.883C5.85933 13.8757 5.85811 13.8683 5.85541 13.8614C5.8527 13.8545 5.84856 13.8483 5.84328 13.8431C5.83799 13.838 5.83166 13.834 5.82472 13.8314C5.37916 13.661 4.94779 13.4555 4.53469 13.2168C4.52718 13.2124 4.52088 13.2062 4.51634 13.1988C4.51179 13.1914 4.50915 13.183 4.50863 13.1743C4.50812 13.1656 4.50975 13.1569 4.51339 13.149C4.51702 13.1411 4.52255 13.1342 4.52948 13.1289C4.61616 13.064 4.7029 12.9964 4.78567 12.9282C4.79303 12.9221 4.80193 12.9182 4.81137 12.917C4.82081 12.9157 4.83042 12.9171 4.83911 12.921C7.54555 14.1562 10.4756 14.1562 13.15 12.921C13.1588 12.9168 13.1685 12.9153 13.1781 12.9164C13.1876 12.9176 13.1967 12.9214 13.2042 12.9275C13.287 12.9958 13.3737 13.064 13.461 13.1289C13.468 13.1341 13.4735 13.141 13.4772 13.1489C13.4809 13.1567 13.4826 13.1654 13.4822 13.1741C13.4817 13.1828 13.4791 13.1912 13.4747 13.1987C13.4702 13.2061 13.4639 13.2124 13.4564 13.2168C13.0443 13.4575 12.6125 13.6628 12.1658 13.8308C12.1588 13.8334 12.1525 13.8375 12.1473 13.8428C12.142 13.848 12.1379 13.8543 12.1353 13.8612C12.1326 13.8682 12.1315 13.8756 12.1319 13.883C12.1323 13.8904 12.1343 13.8976 12.1377 13.9042C12.3851 14.3819 12.6672 14.8408 12.9818 15.2772C12.9882 15.2861 12.9972 15.2928 13.0076 15.2964C13.0181 15.2999 13.0293 15.3001 13.0398 15.2968C14.5272 14.8417 15.926 14.1361 17.1759 13.2104C17.182 13.2059 17.1871 13.2002 17.1908 13.1937C17.1945 13.1871 17.1968 13.1798 17.1975 13.1723C17.5424 9.60657 16.62 6.50919 14.7524 3.76337ZM6.25757 11.2937C5.44273 11.2937 4.77133 10.5459 4.77133 9.62758C4.77133 8.70924 5.42971 7.96142 6.25757 7.96142C7.0919 7.96142 7.7568 8.71574 7.74378 9.62752C7.74378 10.5459 7.08537 11.2937 6.25757 11.2937ZM11.7526 11.2937C10.9378 11.2937 10.2664 10.5459 10.2664 9.62758C10.2664 8.70924 10.9248 7.96142 11.7526 7.96142C12.587 7.96142 13.2519 8.71574 13.2389 9.62752C13.2389 10.5459 12.587 11.2937 11.7526 11.2937Z" fill="#EDEDED"/>
</svg>
